<svg id="Layer_1" enable-background="new 0 0 502.401 502.401" height="512" viewBox="0 0 502.401 502.401" width="512" xmlns="http://www.w3.org/2000/svg"><path d="m497.704 259.471-254.775-254.775c-9.6-9.604-26.107-3.583-27.256 9.96-13.205 155.521 116.62 285.264 272.071 272.07 13.53-1.148 19.571-17.644 9.96-27.255z"/><path d="m407.193 313.437 12.858 25.717c5.309 10.615-2.419 23.155-14.311 23.155-16.466 0-281.707 0-298.983 0-11.87 0-19.629-12.518-14.311-23.155l69.654-139.306c5.884-11.769 22.733-11.777 28.622 0l27.94 55.88 23.195-46.39c-43.167-55.856-64.13-126.01-58.069-197.39.102-1.202.251-2.394.442-3.574-183.395 51.075-247.763 282.965-110.466 420.263 137.546 137.547 369.306 72.503 420.261-110.467-16.738 2.707-53.493 2.363-86.832-4.733z"/></svg>